<svg width="546" height="290" viewBox="0 0 546 290" fill="none" xmlns="http://www.w3.org/2000/svg">
<rect width="546" height="290" rx="24" fill="#20293A"/>
<mask id="mask0_5_3" style="mask-type:alpha" maskUnits="userSpaceOnUse" x="0" y="0" width="546" height="290">
<rect width="546" height="290" rx="24" fill="#20293A"/>
</mask>
<g mask="url(#mask0_5_3)">
<path d="M50 290C50 290 98.2198 245.776 135.183 225.499C222.028 177.857 301.438 229.426 389.652 183.999C465.666 144.855 546 37 546 37" stroke="#4A5567" stroke-width="1"/>
<path d="M60 309C60 309 108.22 264.776 145.183 244.499C232.028 196.857 311.438 248.426 399.652 202.999C475.666 163.855 556 56 556 56" stroke="#4A5567" stroke-width="1"/>
<path d="M70 328C70 328 118.22 283.776 155.183 263.499C242.028 215.857 321.438 267.426 409.652 221.999C485.666 182.855 566 75 566 75" stroke="#4A5567" stroke-width="1"/>
<path d="M80 347C80 347 128.22 302.776 165.183 282.499C252.028 234.857 331.438 286.426 419.652 240.999C495.666 201.855 576 94 576 94" stroke="#4A5567" stroke-width="1"/>
<path d="M90 366C90 366 138.22 321.776 175.183 301.499C262.028 253.857 341.438 305.426 429.652 259.999C505.666 220.855 586 113 586 113" stroke="#4A5567" stroke-width="1"/>
<path d="M100 385C100 385 148.22 340.776 185.183 320.499C272.028 272.857 351.438 324.426 439.652 278.999C515.666 239.855 596 132 596 132" stroke="#4A5567" stroke-width="1"/>
<path d="M110 404C110 404 158.22 359.776 195.183 339.499C282.028 291.857 361.438 343.426 449.652 297.999C525.666 258.855 606 151 606 151" stroke="#4A5567" stroke-width="1"/>
<path d="M120 423C120 423 168.22 378.776 205.183 358.499C292.028 310.857 371.438 362.426 459.652 316.999C535.666 277.855 616 170 616 170" stroke="#4A5567" stroke-width="1"/>
</g>
</svg>
